<svg width="21" height="20" viewBox="0 0 21 20" fill="none" xmlns="http://www.w3.org/2000/svg">
<g clip-path="url(#clip0_467_1023)">
<g clip-path="url(#clip1_467_1023)">
<g clip-path="url(#clip2_467_1023)">
<path fill-rule="evenodd" clip-rule="evenodd" d="M9.88787 15.059L9.33957 14.5107L15.312 8.53828H8.59985L15.97 0.92157L16.5271 1.46096L10.4296 7.76179H17.1845L9.88787 15.0584V15.059ZM5.84892 18.9723C4.6929 18.4025 3.66135 17.609 2.81404 16.6379C1.96671 15.6667 1.32043 14.5372 0.912594 13.3146C0.497959 12.0943 0.329515 10.8038 0.417016 9.51798C0.504516 8.23214 0.846223 6.97641 1.42235 5.82353C2.11502 4.42673 3.13057 3.2151 4.38486 2.28902L4.87685 2.89006C3.70737 3.74557 2.76083 4.8698 2.11704 6.1679C1.58633 7.22973 1.27152 8.38626 1.19083 9.57057C1.11015 10.7549 1.2652 11.9434 1.647 13.0674C2.02264 14.1933 2.61788 15.2336 3.39826 16.1279C4.17863 17.0222 5.12865 17.7529 6.19332 18.2776C7.43669 18.8964 8.80665 19.2184 10.1955 19.2183C13.5219 19.2183 16.7275 17.3766 18.3036 14.2007C18.8368 13.1312 19.1512 11.9661 19.2283 10.7735L20.0024 10.8239C19.9186 12.1192 19.577 13.3847 18.9977 14.5463C17.2864 17.9937 13.8053 19.9935 10.1943 19.9935C8.73083 19.9935 7.24602 19.6657 5.84892 18.9723Z" fill="#6ACCDD"/>
</g>
</g>
</g>
<defs>
<clipPath id="clip0_467_1023">
<rect width="20" height="20" fill="white" transform="translate(0.199219)"/>
</clipPath>
<clipPath id="clip1_467_1023">
<rect width="20" height="20" fill="white" transform="translate(0.199219)"/>
</clipPath>
<clipPath id="clip2_467_1023">
<rect width="19.6078" height="20" fill="white" transform="translate(0.394531)"/>
</clipPath>
</defs>
</svg>
