<?xml version="1.0" encoding="utf-8"?>
<svg xmlns="http://www.w3.org/2000/svg" width="1000" height="1000" viewBox="0 0 1000 1000" fill="none">
  <path fill-rule="evenodd" clip-rule="evenodd" d="M283.392 908.713C173.392 852.491 91.2255 755.518 52.0588 635.629C12.8213 516.556 21.387 386.895 75.9477 274.018C108.095 206.977 155.673 148.509 214.781 103.407L237.837 132.435C182.722 174.115 138.377 228.375 108.503 290.685C58.2611 394.631 50.3727 514.032 86.5032 623.685C122.587 734.074 198.225 823.407 299.559 875.185C357.587 904.995 421.877 920.564 487.114 920.602C642.975 920.602 793.17 831.713 867.059 678.407C892.099 626.592 906.817 570.4 910.392 512.963L946.67 515.379C942.799 577.764 926.817 638.799 899.614 695.074C819.392 861.518 656.281 958.046 487.031 958.046C418.448 958.046 348.892 942.213 283.42 908.713H283.392Z" fill="#28542E"/>
  <path fill-rule="evenodd" clip-rule="evenodd" d="M418.611 602.686L407.237 587.747L558.333 449.913L403.811 435.926L590.828 259.631L602.426 274.364L447.704 420.201L603.207 434.277L418.611 602.686Z" fill="#28542E" stroke="#28542E" strokeWidth="12.5131"/>
  <path fill-rule="evenodd" clip-rule="evenodd" d="M559.583 171.075C586.447 140.883 606.222 106.614 618.424 82.3784V82.3302C635.464 114.823 656.557 145.024 681.197 172.209L681.204 172.217C720.174 215.261 768.64 268.796 768.64 347.649C768.64 432.487 701.237 501.505 618.424 501.505C615.293 501.505 612.184 501.407 609.099 501.212L578.618 528.765C591.431 531.714 604.753 533.269 618.424 533.265V533.289C718.359 533.289 799.628 450.019 799.628 347.673C799.628 256.372 744.331 195.263 703.938 150.649C653.67 95.0913 633.744 41.4103 633.004 39.4165L632.99 39.3806L619.076 0L603.955 38.9224C603.714 39.5494 579.526 101.454 536.673 149.685L528.329 159.017C492.562 198.842 449.087 247.252 439.227 317.759L481.529 279.522C497.548 240.187 525.469 209.09 551.142 180.504L559.583 171.075Z" fill="#28542E"/>
</svg>