<svg width="21" height="20" viewBox="0 0 21 20" fill="none" xmlns="http://www.w3.org/2000/svg">
<g clip-path="url(#clip0_467_1065)">
<g clip-path="url(#clip1_467_1065)">
<g clip-path="url(#clip2_467_1065)">
<path fill-rule="evenodd" clip-rule="evenodd" d="M9.07245 5.37489V7.32201C9.07245 9.07766 10.4731 10.5056 12.1949 10.5056C13.9168 10.5056 15.318 9.07707 15.318 7.3226V5.37429H9.07185L9.07245 5.37489ZM12.5577 14.5207H11.78V11.2714C9.82165 11.0592 8.29124 9.36515 8.29124 7.31311V4.57648H9.25204V1.47117H10.0297V4.57707H14.3667V1.47058H15.1444V4.57648H16.0986V7.31252C16.0986 9.38293 14.541 11.0888 12.5577 11.2761V14.5207ZM5.84918 18.9626C4.69241 18.3911 3.66047 17.5959 2.81308 16.6229C1.96567 15.65 1.31963 14.5186 0.912339 13.2943C0.497802 12.0716 0.329473 10.7789 0.417064 9.49074C0.504656 8.20262 0.846433 6.94458 1.42268 5.78921C2.11498 4.39039 3.13049 3.17658 4.38514 2.24825L4.87651 2.85105C3.7069 3.70866 2.76061 4.83488 2.11736 6.13478C1.58682 7.19876 1.27219 8.35725 1.19162 9.54344C1.11105 10.7296 1.26613 11.92 1.64792 13.046C2.02299 14.1734 2.6179 15.2153 3.39826 16.1114C4.17861 17.0074 5.1289 17.7398 6.19416 18.2662C7.43704 18.8859 8.80686 19.2085 10.1957 19.2086C13.5221 19.2092 16.7276 17.364 18.3036 14.1822C18.8369 13.1105 19.1512 11.9432 19.2283 10.7486L20.0024 10.799C19.9188 12.0963 19.5774 13.3639 18.9983 14.5278C17.2865 17.9822 13.806 19.9863 10.1945 19.9863C8.73104 19.9863 7.24624 19.6572 5.84918 18.9626Z" fill="#7CD57D"/>
</g>
</g>
</g>
<defs>
<clipPath id="clip0_467_1065">
<rect width="20" height="20" fill="white" transform="translate(0.199219)"/>
</clipPath>
<clipPath id="clip1_467_1065">
<rect width="20" height="20" fill="white" transform="translate(0.199219)"/>
</clipPath>
<clipPath id="clip2_467_1065">
<rect width="19.6078" height="20" fill="white" transform="translate(0.394531)"/>
</clipPath>
</defs>
</svg>
